<?xml version="1.0" encoding="iso-8859-1"?>
<!-- Generator: Adobe Illustrator 16.0.0, SVG Export Plug-In . SVG Version: 6.00 Build 0)  -->
<!DOCTYPE svg PUBLIC "-//W3C//DTD SVG 1.1//EN" "http://www.w3.org/Graphics/SVG/1.1/DTD/svg11.dtd">
<svg xmlns="http://www.w3.org/2000/svg" xmlns:xlink="http://www.w3.org/1999/xlink" version="1.1" id="Capa_1" x="0px" y="0px" width="512px" height="512px" viewBox="0 0 533.333 533.333" style="enable-background:new 0 0 533.333 533.333;" xml:space="preserve">
<g>
	<path d="M138.544,144.103c17.1-17.106,44.792-17.106,61.877-0.016l4.076,4.097l52.659-52.685l-4.101-4.104   c-30.013-30.052-72.143-40.562-110.636-31.522C136.901,25.924,107.478,0.017,72.016,0C32.615,0,0.686,32.001,0.677,71.437   c0,34.029,23.745,62.5,55.553,69.703c-12.051,40.338-2.209,85.851,29.607,117.7l118.66,118.698l52.602-52.714L138.448,206.131   C121.426,189.088,121.395,161.274,138.544,144.103z M532.664,71.437C532.671,31.978,500.726,0,461.317,0   c-36.06,0-65.874,26.794-70.667,61.583c-40.144-11.804-85.306-1.821-117.001,29.9L154.983,210.18l52.657,52.694l118.628-118.675   c17.157-17.17,44.785-17.139,61.813-0.096c17.084,17.099,17.084,44.851-0.016,61.956l-4.058,4.082l52.608,52.733l4.093-4.129   c31.488-31.545,41.499-76.435,30.006-116.478C505.689,137.666,532.664,107.702,532.664,71.437z M472.013,391.18   c9.428-38.781-1.029-81.419-31.306-111.719L322.223,160.715l-52.657,52.667l118.5,118.756c17.156,17.186,17.116,44.841,0.096,61.9   c-17.083,17.09-44.794,17.09-61.894-0.017l-4.045-4.058l-52.602,52.732l4.027,4.023c32.04,32.082,77.926,41.896,118.421,29.421   c6.579,32.649,35.382,57.191,69.926,57.191c39.378,0,71.338-31.952,71.338-71.419C533.333,425.872,506.677,396.051,472.013,391.18z    M318.929,275.356L200.421,394.102c-17.037,17.068-44.809,17.099-61.95-0.064c-17.093-17.136-17.1-44.843-0.023-61.962l4.066-4.05   l-52.649-52.668l-4.028,4.017C55.233,310,44.921,353.246,54.875,392.385C23.417,399.811,0,428.131,0,461.914   c-0.008,39.45,31.944,71.419,71.345,71.419c33.906-0.016,62.285-23.655,69.552-55.407c38.907,9.663,81.77-0.678,112.159-31.123   L371.54,328.075L318.929,275.356z" fill="#FFFFFF"/>
</g>
<g>
</g>
<g>
</g>
<g>
</g>
<g>
</g>
<g>
</g>
<g>
</g>
<g>
</g>
<g>
</g>
<g>
</g>
<g>
</g>
<g>
</g>
<g>
</g>
<g>
</g>
<g>
</g>
<g>
</g>
</svg>
