<svg xmlns="http://www.w3.org/2000/svg" viewBox="0 0 140.75 157.63"><defs><style>.cls-1{fill:#fff;}.cls-1,.cls-2{stroke:#000;stroke-miterlimit:10;stroke-width:0.75px;}.cls-2{fill:#dfe1e3;}</style></defs><title>Asset 1</title><g id="Layer_2" data-name="Layer 2"><g id="Layer_1-2" data-name="Layer 1"><path class="cls-1" d="M70.38,37.38c-38.66,0-70,23-70,51.5,0,16.8,10.94,31.73,27.88,41.13-.91,11.87-6.5,25.74-27.38,26.87,0,0,37.32,5,39.6-21.43a91.31,91.31,0,0,0,29.9,4.93c38.65,0,70-23.06,70-51.5S109,37.38,70.38,37.38Z"/><path class="cls-2" d="M101.38,10.27S87.83-6.61,74.45,3.72,61.88,88.94,61.88,88.94s11.61,13.69,17.29,1.49S101.38,10.27,101.38,10.27Z"/><ellipse class="cls-2" cx="65.55" cy="111.77" rx="12.54" ry="13.2"/></g></g></svg>