<?xml version="1.0" encoding="iso-8859-1"?>
<!-- Generator: Adobe Illustrator 19.0.0, SVG Export Plug-In . SVG Version: 6.00 Build 0)  -->
<svg xmlns="http://www.w3.org/2000/svg" xmlns:xlink="http://www.w3.org/1999/xlink" version="1.1" id="Capa_1" x="0px" y="0px" viewBox="0 0 502.642 502.642" style="enable-background:new 0 0 502.642 502.642;" xml:space="preserve" width="512px" height="512px">
<g>
	<g>
		<g>
			<path d="M502.642,374.706c0.022-138.83-112.492-251.343-251.321-251.343S0,235.877,0,374.685     c0,1.575,0.431,2.998,0.453,4.573h194.978c-0.129-1.532-0.453-3.02-0.453-4.573c0-31.127,25.238-56.364,56.343-56.364     c10.268,0,19.78,2.955,28.064,7.744l134.127-120.063l5.134,5.004L299.661,346.125c4.961,8.413,8.024,18.098,8.024,28.56     c0,1.553-0.345,3.041-0.453,4.573h194.914v0.022C502.211,377.683,502.642,376.281,502.642,374.706z M61.8,356.845H38.806     c-5.479,0-9.923-4.422-9.923-9.815c0-5.501,4.444-9.901,9.923-9.901H61.8c5.457,0,9.901,4.422,9.901,9.901     C71.701,352.423,67.258,356.845,61.8,356.845z M261.222,182.381c0,5.436-4.379,9.879-9.858,9.879s-9.901-4.444-9.901-9.879     v-23.038c0-5.436,4.422-9.858,9.901-9.858s9.858,4.422,9.858,9.858V182.381z M463.966,356.845h-23.038     c-5.479,0-9.901-4.422-9.901-9.815c0-5.501,4.422-9.901,9.901-9.901h23.038c5.414,0,9.879,4.422,9.879,9.901     C473.845,352.423,469.38,356.845,463.966,356.845z" fill="#0686d8"/>
		</g>
	</g>
	<g>
	</g>
	<g>
	</g>
	<g>
	</g>
	<g>
	</g>
	<g>
	</g>
	<g>
	</g>
	<g>
	</g>
	<g>
	</g>
	<g>
	</g>
	<g>
	</g>
	<g>
	</g>
	<g>
	</g>
	<g>
	</g>
	<g>
	</g>
	<g>
	</g>
</g>
<g>
</g>
<g>
</g>
<g>
</g>
<g>
</g>
<g>
</g>
<g>
</g>
<g>
</g>
<g>
</g>
<g>
</g>
<g>
</g>
<g>
</g>
<g>
</g>
<g>
</g>
<g>
</g>
<g>
</g>
</svg>
