<?xml version="1.0" encoding="iso-8859-1"?>
<svg xmlns="http://www.w3.org/2000/svg" xmlns:xlink="http://www.w3.org/1999/xlink" version="1.1" viewBox="0 0 512 512" enable-background="new 0 0 512 512" width="512px" height="512px">
  <g>
    <path d="m374,0h-236c-76.2,0-138,61.8-138,138v236c0,76.2 61.8,138 138,138h236c76.2,0 138-61.8 138-138v-236c0-76.2-61.8-138-138-138zm-282.8,256.3c1.42109e-14-22.6 4.6-47.3 12.9-65.3h8.6c8.5,0 16.5,10 16.5,10l62.8,206.1c-59.2-24.8-100.8-83-100.8-150.8zm164.8,165.1c-13.4,0-26.4-1.6-38.8-4.6l42.1-102.9 36.8,102.6c-12.8,3.2-26.2,4.9-40.1,4.9zm25-204.2c0,0-1.3-9.2-1.3-11.9 0-3.4 1.1-7.3 3.2-9.6 1.4-1.6 3.6-4.7 6.2-4.7h17.9v-15h-99v15h3.5c3.2,0 6.4,4.2 9.5,7.3 3.6,3.7 8.2,17.7 13.7,32.2l14.4,47.35-31,71.575-34-143.112c0,0 1-9.606 3.1-11.306 1.3-1.1 3.4-4.006 5.8-4.006h1v-15h-84.2c27.5-51 82.6-84.85 146.2-84.85 41.2,0 78.8,17.475 107.6,42.275-8.3-1.6-17.3,0.188-26.3,5.388-21.2,12.2-28.2,46.694-0.6,63.994 17.2,10.8 23.3,37.697 22.7,54.097-0.6,16.5-40,92.098-40,92.098l-38.4-131.803zm42.6,189.9c15.3-35.4 54.8-128.2 70.7-179.8 6.1-19.8 6.7-37.8 3.6-52.7 14.5,24.4 22.9,52.9 23,83.3-5.68434e-14,66.4-40,123.6-97.3,149.2z" fill="#FFFFFF"/>
  </g>
</svg>
